<?xml version="1.0" encoding="utf-8"?>
<!-- Generator: Adobe Illustrator 24.2.0, SVG Export Plug-In . SVG Version: 6.00 Build 0)  -->
<svg version="1.1" id="Layer_1" xmlns="http://www.w3.org/2000/svg" xmlns:xlink="http://www.w3.org/1999/xlink" x="0px" y="0px"
	 viewBox="0 0 100 100" style="enable-background:new 0 0 100 100;" xml:space="preserve">
<style type="text/css">
	.st0{fill-rule:evenodd;clip-rule:evenodd;fill:#374649;}
	.st1{fill-rule:evenodd;clip-rule:evenodd;fill:#229FC8;}
	.st2{fill-rule:evenodd;clip-rule:evenodd;fill:#3AB1DA;}
	.st3{fill-rule:evenodd;clip-rule:evenodd;fill:#1C82A6;}
	.st4{fill-rule:evenodd;clip-rule:evenodd;fill:#1E91B5;}
	.st5{fill-rule:evenodd;clip-rule:evenodd;fill:#26A3C3;}
	.st6{fill-rule:evenodd;clip-rule:evenodd;fill:#37BBDE;}
	.st7{fill-rule:evenodd;clip-rule:evenodd;fill:#D4EBEC;}
	.st8{fill-rule:evenodd;clip-rule:evenodd;fill:#BDD8D7;}
</style>
<g>
	<path class="st0" d="M55.38,33.16h6.26v6.4h3.17c1.46,0,2.97-0.26,4.35-0.73c0.68-0.23,1.44-0.55,2.11-0.96
		c-0.88-1.15-1.33-2.61-1.47-4.05c-0.18-1.95,0.21-4.5,1.54-6.02L72,27.04l0.78,0.63c1.97,1.59,3.63,3.8,3.93,6.33
		c2.38-0.7,5.17-0.53,7.26,0.68l0.86,0.5l-0.45,0.88c-1.77,3.46-5.48,4.53-9.1,4.34c-5.42,13.5-17.22,19.89-31.53,19.89
		c-7.39,0-14.17-2.76-18.04-9.32l-0.06-0.11l-0.56-1.14c-1.31-2.89-1.74-6.05-1.45-9.21l0.09-0.95h5.35v-6.4h6.26V26.9h12.52v-6.26
		h7.51L55.38,33.16"/>
	<path class="st1" d="M75.66,35.52c0.42-3.26-2.02-5.82-3.54-7.04c-1.74,2.02-2.02,7.3,0.72,9.53c-1.53,1.36-4.75,2.59-8.04,2.59
		H24.68c-0.32,3.44,0.28,6.61,1.66,9.32l0.46,0.84c0.29,0.49,0.6,0.96,0.95,1.42c1.65,0.11,3.17,0.14,4.56,0.11l0,0
		c2.73-0.06,4.97-0.38,6.66-0.97c0.25-0.08,0.52,0.06,0.6,0.32c0.08,0.24-0.05,0.5-0.29,0.59c-0.23,0.08-0.46,0.15-0.7,0.22l0,0
		c-1.33,0.38-2.76,0.64-4.6,0.75c0.11,0-0.11,0.02-0.11,0.02c-0.06,0-0.14,0.01-0.2,0.02c-0.72,0.04-1.51,0.05-2.31,0.05
		c-0.88,0-1.74-0.02-2.7-0.07l-0.02,0.02c3.34,3.76,8.57,6.01,15.12,6.01c13.87,0,25.63-6.15,30.84-19.95
		c3.69,0.38,7.25-0.56,8.86-3.72C80.88,34.09,77.57,34.57,75.66,35.52"/>
	<path class="st2" d="M75.66,35.52c0.42-3.26-2.02-5.82-3.54-7.04c-1.74,2.02-2.02,7.3,0.72,9.53c-1.53,1.36-4.75,2.59-8.04,2.59
		H27.06c-0.16,5.27,1.79,9.27,5.25,11.69l0,0c2.73-0.06,4.97-0.38,6.66-0.97c0.25-0.08,0.52,0.06,0.6,0.32
		c0.08,0.24-0.05,0.5-0.29,0.59c-0.23,0.08-0.46,0.15-0.7,0.22l0,0c-1.33,0.38-2.88,0.67-4.72,0.78c0,0-0.04-0.04-0.05-0.04
		c4.72,2.42,11.56,2.41,19.41-0.6c8.8-3.38,16.98-9.82,22.69-17.18C75.83,35.44,75.74,35.48,75.66,35.52"/>
	<path class="st3" d="M24.76,44.78c0.25,1.84,0.79,3.57,1.59,5.14l0.46,0.84c0.29,0.49,0.6,0.96,0.95,1.42
		c1.65,0.11,3.17,0.14,4.56,0.11c2.73-0.06,4.97-0.38,6.66-0.97c0.25-0.08,0.52,0.06,0.6,0.32c0.08,0.24-0.05,0.5-0.29,0.59
		c-0.23,0.08-0.46,0.15-0.7,0.22l0,0c-1.33,0.38-2.87,0.65-4.72,0.77c-0.06,0-0.17,0-0.24,0.01c-0.72,0.04-1.5,0.07-2.3,0.07
		c-0.87,0-1.77-0.02-2.73-0.07c3.34,3.76,8.6,6.02,15.15,6.02c11.87,0,22.2-4.51,28.19-14.46L24.76,44.78"/>
	<path class="st4" d="M27.42,44.78c0.71,3.24,2.42,5.78,4.89,7.51c2.73-0.06,4.97-0.38,6.66-0.97c0.25-0.08,0.52,0.06,0.6,0.32
		c0.08,0.24-0.05,0.5-0.29,0.59c-0.23,0.08-0.46,0.15-0.7,0.22l0,0c-1.33,0.38-2.91,0.65-4.75,0.77c4.72,2.42,11.54,2.39,19.39-0.63
		c4.75-1.82,9.31-4.54,13.41-7.81H27.42"/>
	<path class="st5" d="M30.13,34.2h5.43v5.43h-5.43C30.13,39.63,30.13,34.2,30.13,34.2z M30.58,34.65h0.43v4.52h-0.43V34.65z
		 M31.39,34.65h0.45v4.52h-0.45V34.65L31.39,34.65z M32.21,34.65h0.45v4.52h-0.45V34.65z M33.03,34.65h0.45v4.52h-0.45V34.65z
		 M33.85,34.65h0.45v4.52h-0.45V34.65L33.85,34.65z M34.67,34.65h0.43v4.52h-0.43V34.65z M36.39,27.94h5.43v5.43h-5.43V27.94
		L36.39,27.94z M36.84,28.39h0.43v4.52h-0.43V28.39z M37.65,28.39h0.45v4.52h-0.44L37.65,28.39L37.65,28.39z M38.47,28.39h0.45v4.52
		h-0.45V28.39z M39.29,28.39h0.45v4.52h-0.45V28.39z M40.11,28.39h0.45v4.52h-0.45V28.39z M40.93,28.39h0.43v4.52h-0.43V28.39z"/>
	<path class="st6" d="M36.39,34.2h5.43v5.43h-5.43V34.2L36.39,34.2z M36.84,34.65h0.43v4.52h-0.43V34.65z M37.65,34.65h0.45v4.52
		h-0.44L37.65,34.65L37.65,34.65z M38.47,34.65h0.45v4.52h-0.45V34.65z M39.29,34.65h0.45v4.52h-0.45V34.65z M40.11,34.65h0.45v4.52
		h-0.45V34.65z M40.93,34.65h0.43v4.52h-0.43V34.65z"/>
	<path class="st5" d="M42.65,34.2h5.43v5.43h-5.43V34.2z M43.1,34.65h0.43v4.52H43.1V34.65z M43.91,34.65h0.45v4.52h-0.45V34.65z
		 M44.73,34.65h0.45v4.52h-0.45V34.65z M45.55,34.65H46v4.52h-0.45V34.65z M46.37,34.65h0.45v4.52h-0.45V34.65z M47.2,34.65h0.43
		v4.52H47.2V34.65z"/>
	<path class="st6" d="M42.65,27.94h5.43v5.43h-5.43V27.94z M43.1,28.39h0.43v4.52H43.1V28.39z M43.91,28.39h0.45v4.52h-0.45V28.39z
		 M44.73,28.39h0.45v4.52h-0.45V28.39z M45.55,28.39H46v4.52h-0.45V28.39z M46.37,28.39h0.45v4.52h-0.45V28.39z M47.2,28.39h0.43
		v4.52H47.2V28.39z M48.91,34.2h5.43v5.43h-5.43V34.2z M49.36,34.65h0.43v4.52h-0.43V34.65z M50.17,34.65h0.45v4.52h-0.45V34.65z
		 M50.99,34.65h0.45v4.52h-0.45V34.65z M51.81,34.65h0.45v4.52h-0.45V34.65z M52.63,34.65h0.45v4.52h-0.45V34.65z M53.46,34.65h0.43
		v4.52h-0.43V34.65z"/>
	<path class="st5" d="M48.91,27.94h5.43v5.43h-5.43V27.94z M49.36,28.39h0.43v4.52h-0.43V28.39z M50.17,28.39h0.45v4.52h-0.45V28.39
		z M50.99,28.39h0.45v4.52h-0.45V28.39z M51.81,28.39h0.45v4.52h-0.45V28.39z M52.63,28.39h0.45v4.52h-0.45V28.39z M53.46,28.39
		h0.43v4.52h-0.43V28.39z"/>
	<path class="st6" d="M48.91,21.68h5.43v5.43h-5.43V21.68z M49.36,22.13h0.43v4.52h-0.43V22.13L49.36,22.13z M50.17,22.13h0.45v4.52
		h-0.45V22.13L50.17,22.13z M50.99,22.13h0.45v4.52h-0.45V22.13L50.99,22.13z M51.81,22.13h0.45v4.52h-0.45V22.13L51.81,22.13z
		 M52.63,22.13h0.45v4.52h-0.45V22.13L52.63,22.13z M53.46,22.13h0.43v4.52h-0.43V22.13L53.46,22.13z"/>
	<path class="st5" d="M55.17,34.2h5.43v5.43h-5.43V34.2z M55.62,34.65h0.43v4.52h-0.43V34.65L55.62,34.65z M56.43,34.65h0.45v4.52
		h-0.45V34.65L56.43,34.65z M57.25,34.65h0.45v4.52h-0.45V34.65z M58.07,34.65h0.45v4.52h-0.45V34.65z M58.89,34.65h0.45v4.52h-0.45
		V34.65z M59.72,34.65h0.43v4.52h-0.43V34.65z"/>
	<path class="st7" d="M41.48,48.42c0.83-0.01,1.51,0.65,1.52,1.48s-0.65,1.51-1.48,1.52c-0.01,0-0.03,0-0.04,0
		c-0.83-0.01-1.49-0.69-1.48-1.52C40.01,49.09,40.66,48.43,41.48,48.42"/>
	<path class="st0" d="M41.48,48.85c0.14,0,0.27,0.03,0.39,0.07c-0.21,0.12-0.28,0.39-0.16,0.6c0.08,0.13,0.22,0.22,0.38,0.22
		c0.17,0,0.31-0.09,0.38-0.23c0.23,0.55-0.03,1.17-0.58,1.4c-0.55,0.23-1.17-0.03-1.4-0.58c-0.23-0.55,0.03-1.17,0.58-1.4
		C41.2,48.87,41.33,48.85,41.48,48.85 M15,45.32h69.63c-1.52-0.38-4.8-0.9-4.26-2.89c-2.76,3.19-9.41,2.24-11.08,0.67
		c-1.87,2.71-12.75,1.68-13.5-0.43c-2.34,2.75-9.6,2.75-11.94,0c-0.76,2.11-11.64,3.14-13.5,0.43c-1.68,1.57-8.33,2.53-11.08-0.66
		C19.8,44.42,16.52,44.94,15,45.32"/>
	<path class="st8" d="M45.45,59.21c-3.71-1.76-5.74-4.15-6.87-6.76c-1.38,0.39-3.03,0.64-4.96,0.75c-0.72,0.04-1.49,0.06-2.29,0.06
		c-0.92,0-1.89-0.03-2.91-0.08c3.4,3.4,7.58,6.01,15.33,6.06C44.32,59.24,44.89,59.23,45.45,59.21"/>
	<path class="st7" d="M39.96,54.86c-0.51-0.7-1.01-1.57-1.38-2.41c-1.38,0.39-3.03,0.64-4.96,0.75
		C34.95,53.92,36.84,54.58,39.96,54.86"/>
</g>
<path class="st0" d="M26.72,62.73h-0.17c-0.61,0-0.98,0.47-0.98,1.06v4.48c-1.11-0.98-2.43-1.58-3.99-1.58h-0.42
	c-1.05,0-2.09,0.28-3,0.82c-1.98,1.17-3.12,3-3.12,5.3v0.42c0,1.05,0.28,2.09,0.82,3c1.17,1.98,3,3.12,5.3,3.12h0.42
	c1.05,0,2.09-0.28,3-0.82c1.98-1.17,3.12-3,3.12-5.3V63.8C27.69,63.2,27.33,62.73,26.72,62.73z M25,75.06
	c-0.83,1.38-2.04,2.15-3.67,2.15c-0.67,0-1.31-0.17-1.9-0.49c-1.46-0.8-2.26-2.05-2.26-3.71c0-0.6,0.12-1.17,0.38-1.71
	c0.77-1.6,2.05-2.49,3.82-2.49c0.86,0,1.66,0.25,2.36,0.76c1.16,0.83,1.84,1.96,1.84,3.4C25.57,73.71,25.39,74.42,25,75.06z"/>
<path class="st0" d="M40.86,70.02c-1.18-2.15-3.05-3.34-5.51-3.34h-0.29l0,0c-1.07,0-2.08,0.27-3,0.82c-1.97,1.17-3.11,3-3.11,5.3
	v0.42c0,1.05,0.28,2.09,0.82,3c1.17,1.98,3,3.12,5.3,3.12h0.42c1.06,0,2.08-0.28,3-0.82c1.98-1.16,3.12-3,3.12-5.3V72.8
	C41.59,71.82,41.33,70.88,40.86,70.02z M38.9,75.06c-0.82,1.34-2,2.15-3.59,2.15c-0.75,0-1.45-0.18-2.09-0.57
	c-1.36-0.83-2.15-2.02-2.15-3.63c0-0.6,0.12-1.17,0.38-1.71c0.77-1.6,2.05-2.49,3.82-2.49c0.81,0,1.57,0.23,2.24,0.68
	c1.23,0.83,1.96,1.98,1.96,3.48C39.47,73.71,39.29,74.42,38.9,75.06z"/>
<path class="st0" d="M50.41,68.98c-0.32-0.15-0.92-0.2-1.27-0.21c-1.77-0.07-3.05,0.93-3.81,2.49c-0.26,0.54-0.38,1.11-0.38,1.71
	c0,1.82,0.95,3.09,2.58,3.86c0.59,0.28,1.36,0.34,2,0.34c0.57,0,1.37-0.35,1.88-0.59l0.09-0.04h0.39l0.04,0.01
	c0.48,0.1,0.85,0.41,0.85,0.93v0.21c0,1.29-2.36,1.59-3.26,1.65c-3.18,0.22-5.56-1.53-6.46-4.56c-0.16-0.53-0.23-1.05-0.23-1.6
	v-0.42c0-2.3,1.14-4.12,3.11-5.29c0.92-0.54,1.93-0.82,3-0.82h0.42c1.13,0,2.17,0.32,3.11,0.96l0.08,0.05l0.05,0.08
	c0.1,0.17,0.19,0.36,0.19,0.56v0.21c0,0.54-0.41,0.83-0.89,0.93l-0.04,0.01h-0.13C51.41,69.44,50.69,69.11,50.41,68.98L50.41,68.98z
	"/>
<path class="st0" d="M57.29,70.41c0.82-0.83,1.65-1.65,2.49-2.46c0.23-0.23,1.12-1.18,1.46-1.18h0.38l0.04,0.01
	c0.48,0.1,0.85,0.41,0.85,0.93v0.21c0,0.35-0.42,0.77-0.64,1.01c-0.49,0.52-1,1.02-1.5,1.52l-2.56,2.6c1.1,1.11,2.21,2.21,3.3,3.33
	c0.3,0.31,0.6,0.62,0.9,0.93c0.11,0.11,0.26,0.25,0.35,0.4c0.1,0.14,0.15,0.31,0.15,0.48v0.22l-0.01,0.05
	c-0.12,0.48-0.43,0.87-0.96,0.87h-0.17c-0.35,0-0.75-0.4-0.99-0.62c-0.5-0.47-0.97-0.96-1.46-1.44l-1.63-1.6v2.56
	c0,0.59-0.37,1.06-0.98,1.06h-0.17c-0.61,0-0.98-0.47-0.98-1.06v-14.4c0-0.59,0.37-1.06,0.98-1.06h0.17c0.61,0,0.98,0.47,0.98,1.06
	L57.29,70.41L57.29,70.41z"/>
<path class="st0" d="M83.73,66.77h0.21c0.64,0,1.06,0.43,1.06,1.06c0,0.88-0.84,1.1-1.57,1.1c-0.95,0-1.86,0.58-2.52,1.22
	c-0.82,0.81-1.18,1.84-1.18,2.98v5.14c0,0.59-0.37,1.06-0.98,1.06h-0.17c-0.61,0-0.98-0.47-0.98-1.06v-5.43
	c0-2.09,1.02-3.79,2.71-4.98C81.33,67.15,82.49,66.77,83.73,66.77L83.73,66.77z"/>
<path class="st0" d="M75.52,69.82l-0.11-0.18c-0.58-1.01-1.43-1.78-2.48-2.3c-1.95-0.96-3.98-1.04-5.87,0.06l-0.29,0.17
	c-0.77,0.44-1.43,1.01-1.93,1.75c-1.46,2.13-1.63,4.48-0.34,6.72l0.13,0.22c0.54,0.94,1.27,1.71,2.23,2.23
	c2.01,1.08,4.15,1.25,6.16,0.08l0.18-0.1c0.55-0.32,0.68-0.87,0.4-1.43c-0.12-0.24-0.34-0.4-0.57-0.51l-0.05-0.03l-0.06-0.01
	c-0.38-0.07-1.42,0.39-1.82,0.56c-0.79,0.14-1.67,0.18-2.44-0.09c1.41-1.22,2.81-2.43,4.22-3.65c0.63-0.54,1.3-1.16,1.96-1.66
	C75.39,71.2,75.94,70.55,75.52,69.82z M71.55,71.61c-1.57,1.36-3.14,2.71-4.72,4.06c-0.15-0.18-0.29-0.36-0.41-0.56
	c-0.35-0.56-0.53-1.2-0.55-1.86c-0.05-1.68,0.57-3.03,2.04-3.88c1.12-0.65,2.33-0.8,3.55-0.34c0.61,0.23,1.32,0.62,1.75,1.16
	C72.67,70.67,72.08,71.15,71.55,71.61z"/>
</svg>
