<?xml version="1.0" encoding="utf-8"?>
<!-- Generator: Adobe Illustrator 24.2.0, SVG Export Plug-In . SVG Version: 6.00 Build 0)  -->
<svg version="1.1" id="Layer_1" xmlns="http://www.w3.org/2000/svg" xmlns:xlink="http://www.w3.org/1999/xlink" x="0px" y="0px"
	 viewBox="0 0 100 100" style="enable-background:new 0 0 100 100;" xml:space="preserve">
<style type="text/css">
	.st0{fill:#5A328A;}
	.st1{opacity:0.1;fill:#FFFFFF;enable-background:new    ;}
	.st2{fill:#FFFFFF;}
	.st3{fill:#F2F2F2;}
</style>
<g>
	<circle class="st0" cx="50.21" cy="49.27" r="34.52"/>
	<path class="st1" d="M26.28,24.46c-14.23,12.68-15.49,34.5-2.81,48.74S57.98,88.68,72.21,76c0.99-0.88,1.93-1.82,2.81-2.81
		L26.28,24.46z"/>
	<path class="st2" d="M23.67,54.93c-0.41,0.01-0.8-0.16-1.08-0.45c-0.29-0.28-0.45-0.67-0.44-1.08c0-0.4,0.16-0.79,0.44-1.08
		c0.28-0.3,0.67-0.47,1.08-0.46c0.41,0,0.8,0.17,1.08,0.46c0.29,0.28,0.45,0.67,0.45,1.08c0,0.41-0.16,0.8-0.45,1.08
		C24.47,54.77,24.08,54.93,23.67,54.93z"/>
	<path class="st2" d="M45.11,54.66h-2.83L32.17,38.98c-0.25-0.39-0.46-0.8-0.63-1.23h-0.09c0.1,0.9,0.13,1.8,0.11,2.7v14.22h-2.3V35
		h2.99l9.84,15.4c0.41,0.64,0.68,1.08,0.8,1.32h0.05c-0.11-0.96-0.16-1.93-0.14-2.89V35h2.3V54.66z"/>
	<path class="st2" d="M60.66,54.66H50.21V35h9.97v2.08h-7.62v6.54h7.1v2.07h-7.1v6.82h8.11L60.66,54.66z"/>
	<path class="st2" d="M76.1,37.08h-5.72v17.58h-2.3V37.08h-5.65V35H76.1V37.08z"/>
	<path class="st3" d="M43.87,68.04c-0.78,0.38-1.64,0.56-2.5,0.53c-1.16,0.05-2.29-0.4-3.1-1.24c-0.79-0.89-1.21-2.05-1.17-3.24
		c-0.06-1.3,0.41-2.57,1.31-3.52c0.87-0.89,2.08-1.38,3.32-1.34c0.74-0.03,1.47,0.1,2.16,0.38v1.08c-0.66-0.37-1.4-0.55-2.16-0.54
		c-0.96-0.03-1.89,0.37-2.54,1.08C38.52,62,38.17,63,38.22,64.01c-0.05,0.96,0.27,1.91,0.91,2.64c0.61,0.66,1.48,1.02,2.38,0.98
		c0.83,0.02,1.65-0.19,2.36-0.6L43.87,68.04z"/>
	<path class="st3" d="M48.28,68.57c-0.87,0.03-1.71-0.32-2.3-0.96c-0.59-0.66-0.9-1.52-0.85-2.41c-0.05-0.93,0.27-1.85,0.9-2.55
		c0.64-0.63,1.51-0.96,2.41-0.92c0.85-0.05,1.67,0.28,2.25,0.9c0.57,0.69,0.86,1.57,0.81,2.47c0.05,0.91-0.27,1.8-0.87,2.48
		C50.02,68.24,49.16,68.59,48.28,68.57z M48.35,62.67c-0.6-0.03-1.18,0.22-1.57,0.68c-0.42,0.53-0.62,1.2-0.58,1.88
		c-0.04,0.66,0.17,1.3,0.58,1.81c0.4,0.45,0.98,0.69,1.57,0.67c0.59,0.03,1.16-0.2,1.54-0.65c0.39-0.54,0.58-1.19,0.54-1.86
		c0.04-0.67-0.15-1.33-0.54-1.87C49.51,62.88,48.94,62.64,48.35,62.67z"/>
	<path class="st3" d="M56.53,62.99c-0.23-0.15-0.51-0.22-0.79-0.2c-0.44,0.02-0.85,0.25-1.08,0.63c-0.32,0.51-0.48,1.1-0.44,1.7v3.3
		h-1.08v-6.47h1.08v1.35l0,0c0.12-0.42,0.35-0.79,0.68-1.08c0.28-0.24,0.64-0.38,1.01-0.38c0.21-0.01,0.42,0.02,0.61,0.09V62.99z"/>
	<path class="st3" d="M62.85,65.45h-4.56c-0.03,0.6,0.17,1.2,0.55,1.66c0.4,0.4,0.96,0.62,1.53,0.58c0.73-0.01,1.44-0.26,2.01-0.72
		v0.97c-0.67,0.44-1.46,0.66-2.25,0.61c-0.81,0.04-1.61-0.28-2.16-0.88c-0.56-0.7-0.84-1.58-0.79-2.48
		c-0.04-0.9,0.27-1.78,0.85-2.46c0.54-0.62,1.33-0.97,2.16-0.95c0.75-0.04,1.47,0.26,1.96,0.82c0.5,0.65,0.74,1.47,0.69,2.29
		L62.85,65.45z M61.77,64.58c0.02-0.5-0.13-0.99-0.43-1.39c-0.3-0.34-0.74-0.52-1.19-0.5c-0.47-0.01-0.92,0.19-1.24,0.53
		c-0.36,0.38-0.58,0.86-0.64,1.37L61.77,64.58z"/>
</g>
</svg>
