<?xml version="1.0" encoding="utf-8"?>
<!-- Generator: Adobe Illustrator 24.2.0, SVG Export Plug-In . SVG Version: 6.00 Build 0)  -->
<svg version="1.1" id="Layer_1" xmlns="http://www.w3.org/2000/svg" xmlns:xlink="http://www.w3.org/1999/xlink" x="0px" y="0px"
	 viewBox="0 0 100 100" style="enable-background:new 0 0 100 100;" xml:space="preserve">
<style type="text/css">
	.st0{fill:#E44D26;}
	.st1{fill:#F16529;}
	.st2{fill:#EBEBEB;}
	.st3{fill:#FFFFFF;}
	.st4{fill:#264DE4;}
	.st5{fill:#2965F1;}
</style>
<path class="st0" d="M54.93,26.45h2.1v2.08h1.94v-2.08h2.1v6.31h-2.1v-2.1h-1.92v2.1h-2.12 M63.85,28.55H62v-2.1h5.82v2.1h-1.86v4.2
	h-2.1 M68.74,26.45h2.2l1.35,2.22l1.35-2.22h2.2v6.31h-2.1v-3.13l-1.47,2.27l-1.47-2.27v3.13h-2.07 M76.89,26.45H79v4.22h2.98v2.08
	h-5.08"/>
<path class="st0" d="M54.86,69.49l-3.02-33.85H85l-3.02,33.83l-13.59,3.77"/>
<path class="st1" d="M68.42,70.36V38.42h13.55L79.39,67.3"/>
<path class="st2" d="M58,42.56h10.42v4.15h-5.87l0.38,4.25h5.48v4.14h-9.29 M59.32,57.18h4.17l0.29,3.32l4.64,1.24v4.33L59.9,63.7"
	/>
<path class="st3" d="M78.8,42.56H68.4v4.15h10.02 M78.05,50.96H68.4v4.15h5.12l-0.48,5.39l-4.63,1.24v4.31l8.5-2.36"/>
<polygon id="polygon2989" class="st4" points="48.16,35.95 45.14,69.79 31.56,73.55 18.02,69.79 15,35.95 "/>
<polygon id="polygon2991" class="st5" points="42.55,67.63 45.13,38.71 31.58,38.71 31.58,70.67 "/>
<polygon id="polygon2993" class="st2" points="21.92,51.27 22.29,55.42 31.58,55.42 31.58,51.27 "/>
<polygon id="polygon2995" class="st2" points="31.58,42.87 31.56,42.87 21.17,42.87 21.55,47.02 31.58,47.02 "/>
<polygon id="polygon2997" class="st2" points="31.58,66.37 31.58,62.05 31.56,62.05 26.94,60.8 26.64,57.49 24.4,57.49 22.47,57.49 
	23.06,64.01 31.56,66.37 "/>
<path id="path2999" class="st4" d="M22.8,26.75h5.03v2.1h-2.93v2.1h2.93v2.1H22.8V26.75z"/>
<path id="path3001" class="st4" d="M28.84,26.75h5.03v1.83h-2.93v0.37h2.93v4.2h-5.03v-1.92h2.93v-0.37h-2.93V26.75z"/>
<path id="path3003" class="st4" d="M34.87,26.75h5.03v1.83h-2.93v0.37h2.93v4.2h-5.03v-1.92h2.93v-0.37h-2.93V26.75z"/>
<polygon id="polygon3005" class="st3" points="36.68,55.42 36.19,60.8 31.56,62.05 31.56,66.37 40.07,64.01 40.14,63.31 
	41.11,52.38 41.21,51.27 41.96,42.87 31.56,42.87 31.56,47.02 37.41,47.02 37.04,51.27 31.56,51.27 31.56,55.42 "/>
</svg>
