<?xml version="1.0" encoding="utf-8"?>
<!-- Generator: Adobe Illustrator 24.2.0, SVG Export Plug-In . SVG Version: 6.00 Build 0)  -->
<svg version="1.1" id="Layer_1" xmlns="http://www.w3.org/2000/svg" xmlns:xlink="http://www.w3.org/1999/xlink" x="0px" y="0px"
	 viewBox="0 0 100 100" style="enable-background:new 0 0 100 100;" xml:space="preserve">
<style type="text/css">
	.st0{fill:#252122;}
	.st1{fill:#F6971D;}
</style>
<g>
	<path class="st0" d="M50,17.5c-17.95,0-32.5,14.55-32.5,32.5S32.05,82.5,50,82.5c17.95,0,32.5-14.55,32.5-32.5S67.95,17.5,50,17.5z
		 M50,78.95c-15.99,0-28.95-12.96-28.95-28.95c0-15.99,12.96-28.95,28.95-28.95c15.99,0,28.95,12.96,28.95,28.95
		C78.95,65.99,65.99,78.95,50,78.95z"/>
	<g>
		<path class="st1" d="M46.54,64.14c0.01-0.2,0.02-0.41,0.02-0.61c0.01-10.66,0.01-21.32,0.02-31.98c0-0.19,0-0.37,0-0.61
			c2.64-1.34,5.27-2.68,7.97-4.06c0,13.08,0,26.07,0,39.09c-1.95,1.17-3.9,2.36-5.87,3.53c-0.7,0.42-1.41,0.82-2.12,1.23
			C46.55,68.53,46.55,66.33,46.54,64.14z"/>
		<path class="st0" d="M46.54,64.14c0.01,2.19,0.01,4.39,0.02,6.58c-1.79-0.23-3.49-0.76-5.16-1.43c-3.54-1.43-6.57-3.54-8.81-6.68
			c-3.92-5.52-3.59-12.32,0.82-17.47c3.06-3.57,7-5.68,11.51-6.97c0,2.26,0,4.47,0,6.73c-0.44,0.19-0.93,0.39-1.41,0.61
			c-2.07,0.96-3.91,2.23-5.35,4.02c-2.47,3.05-2.47,6.64,0.01,9.7c1.91,2.35,4.45,3.72,7.28,4.62
			C45.81,63.95,46.18,64.04,46.54,64.14z"/>
		<path class="st0" d="M64.68,39.86c0.41-0.79,0.8-1.54,1.23-2.36c1.93,3.04,3.82,6.03,5.76,9.07c-3.85,0.69-7.62,1.36-11.51,2.06
			c0.54-1.06,1.04-2.02,1.55-3.03c-1.75-0.84-3.57-1.37-5.48-1.69c0-2.17,0-4.31,0-6.46C57.96,37.51,60.7,38.29,64.68,39.86z"/>
	</g>
</g>
</svg>
