<?xml version="1.0" encoding="utf-8"?>
<!-- Generator: Adobe Illustrator 24.2.0, SVG Export Plug-In . SVG Version: 6.00 Build 0)  -->
<svg version="1.1" id="Layer_1" xmlns="http://www.w3.org/2000/svg" xmlns:xlink="http://www.w3.org/1999/xlink" x="0px" y="0px"
	 viewBox="0 0 100 100" style="enable-background:new 0 0 100 100;" xml:space="preserve">
<style type="text/css">
	.st0{fill:#F7DF1E;}
</style>
<rect x="20" y="20" class="st0" width="60" height="60"/>
<path d="M60.3,66.87c1.21,1.98,2.78,3.42,5.57,3.42c2.34,0,3.83-1.16,3.83-2.78c0-1.93-1.53-2.62-4.11-3.74l-1.41-0.61
	c-4.07-1.74-6.78-3.9-6.78-8.49c0-4.23,3.22-7.45,8.26-7.45c3.58,0,6.17,1.25,8.02,4.51l-4.39,2.82c-0.97-1.74-2.01-2.42-3.63-2.42
	c-1.65,0-2.7,1.04-2.7,2.42c0,1.69,1.04,2.37,3.47,3.42l1.41,0.6c4.79,2.06,7.5,4.14,7.5,8.86c0,5.08-3.99,7.86-9.34,7.86
	c-5.23,0-8.62-2.49-10.27-5.77L60.3,66.87z M40.39,67.36c0.89,1.57,1.69,2.9,3.63,2.9c1.86,0,3.02-0.73,3.02-3.54V47.55h5.64V66.8
	c0,5.83-3.42,8.49-8.42,8.49c-4.51,0-7.13-2.34-8.46-5.15L40.39,67.36z"/>
</svg>
