<?xml version="1.0" encoding="utf-8"?>
<!-- Generator: Adobe Illustrator 24.2.0, SVG Export Plug-In . SVG Version: 6.00 Build 0)  -->
<svg version="1.1" id="Layer_1" xmlns="http://www.w3.org/2000/svg" xmlns:xlink="http://www.w3.org/1999/xlink" x="0px" y="0px"
	 viewBox="0 0 100 100" style="enable-background:new 0 0 100 100;" xml:space="preserve">
<style type="text/css">
	.st0{fill:#24B6C0;}
	.st1{fill:#06869B;}
</style>
<g>
	<g>
		<path class="st0" d="M49.79,54.24c-2-0.09-1.59-0.04-2.16-1.55c-0.17-0.46-0.24-0.96-0.87-1.11c-0.32-0.08-0.56-0.12-0.85,0.05
			c-0.35,0.21-0.75,0.36-1.1,0.57c-0.47,0.29-0.88,0.23-1.27-0.14c-0.54-0.53-1.08-1.05-1.6-1.59c-0.3-0.31-0.32-0.66-0.12-1.04
			c0.17-0.33,0.33-0.68,0.49-1.02c0.42-0.89,0.17-1.49-0.75-1.8c-0.14-0.05-0.27-0.11-0.41-0.13c-1.06-0.14-1.5-0.78-1.46-1.81
			c0.02-0.61,0.01-1.22,0.11-1.82c0.04-0.23,0.3-0.47,0.53-0.6c0.29-0.17,0.63-0.26,0.97-0.32c0.59-0.12,0.96-0.42,1.13-1.04
			c0.1-0.36,0.14-0.63-0.08-0.95c-0.2-0.3-0.34-0.64-0.53-0.93c-0.32-0.48-0.28-0.91,0.13-1.31c0.5-0.49,1.01-0.97,1.51-1.45
			c0.31-0.3,0.65-0.33,1.04-0.14c0.34,0.17,0.69,0.31,1.03,0.48c0.92,0.45,1.49,0.2,1.81-0.78c0.04-0.14,0.09-0.27,0.13-0.41
			c0.42-1.3,0.41-1.31,1.78-1.39c0.57-0.03,1.16-0.02,1.72,0.07c0.26,0.05,0.55,0.3,0.7,0.54c0.2,0.33,0.32,0.72,0.41,1.11
			c0.12,0.53,0.43,0.85,0.95,0.94c0.18,0.03,0.39,0.04,0.55-0.03c0.46-0.2,0.91-0.43,1.35-0.67c0.38-0.21,0.73-0.21,1.04,0.08
			c0.6,0.57,1.19,1.14,1.77,1.73c0.27,0.27,0.29,0.6,0.12,0.95c-0.17,0.35-0.34,0.71-0.51,1.07c-0.44,0.92-0.18,1.5,0.79,1.82
			c0.2,0.07,0.4,0.16,0.61,0.19c0.85,0.12,1.19,0.63,1.17,1.45c-0.02,0.68,0.01,1.37-0.07,2.04c-0.03,0.24-0.3,0.51-0.53,0.64
			c-0.33,0.2-0.73,0.29-1.1,0.42c-0.99,0.35-1.21,0.93-0.74,1.88c0.08,0.16,0.16,0.32,0.24,0.48c0.56,1.1,0.58,1.11-0.25,2.01
			c-0.42,0.46-0.88,0.91-1.38,1.28c-0.2,0.15-0.57,0.17-0.83,0.1c-0.39-0.1-0.75-0.33-1.13-0.51c-0.92-0.43-1.5-0.17-1.82,0.8
			C51.67,54.26,52.11,54.11,49.79,54.24z M56.41,38.45c-0.18-0.2-0.38-0.41-0.56-0.63c-0.34-0.43-0.7-0.52-1.18-0.18
			c-0.32,0.23-0.69,0.39-1.05,0.53c-0.18,0.07-0.43,0.1-0.61,0.04c-1.74-0.61-1.74-0.62-2.39-2.37c-0.01-0.02-0.02-0.03-0.02-0.05
			c-0.05-0.34-0.27-0.43-0.58-0.4c-0.18,0.02-0.36,0.02-0.54,0c-0.42-0.04-0.66,0.11-0.76,0.55c-0.1,0.42-0.23,0.83-0.41,1.22
			c-0.09,0.21-0.27,0.45-0.47,0.54c-1.62,0.76-1.63,0.75-3.32-0.01c-0.08-0.04-0.16-0.09-0.25-0.11c-0.08-0.02-0.2-0.04-0.25,0.01
			c-0.3,0.28-0.65,0.54-0.85,0.88c-0.08,0.13,0.15,0.48,0.29,0.7c0.48,0.74,0.83,1.47,0.18,2.3c-0.07,0.09-0.11,0.23-0.13,0.35
			c-0.11,0.74-0.55,1.13-1.27,1.25c-0.12,0.02-0.24,0.07-0.36,0.11c-0.89,0.28-0.89,0.28-0.85,1.22c0,0.05,0.01,0.11,0.01,0.16
			c-0.02,0.34,0.14,0.51,0.47,0.6c0.45,0.12,0.9,0.26,1.33,0.44c0.2,0.08,0.42,0.24,0.51,0.42c0.82,1.63,0.84,1.65,0.01,3.31
			c-0.26,0.52,0.02,0.73,0.3,0.98c0.29,0.27,0.53,0.72,1.07,0.37c0.37-0.24,0.78-0.45,1.2-0.6c0.23-0.08,0.52-0.07,0.76-0.02
			c1.26,0.28,2.07,1,2.29,2.33c0.13,0.75,0.76,0.37,1.19,0.44c0.37,0.06,0.59-0.11,0.69-0.5c0.1-0.43,0.25-0.86,0.42-1.27
			c0.08-0.2,0.24-0.42,0.43-0.51c1.63-0.83,1.64-0.83,3.31-0.02c0.36,0.17,0.59,0.15,0.83-0.14c0.1-0.13,0.22-0.24,0.34-0.34
			c0.32-0.27,0.4-0.53,0.15-0.92c-0.24-0.37-0.44-0.79-0.6-1.2c-0.08-0.2-0.1-0.47-0.03-0.66c0.64-1.72,0.65-1.71,2.35-2.34
			c0.08-0.03,0.18-0.04,0.25-0.09c0.07-0.04,0.17-0.12,0.17-0.18c0.01-0.45,0.06-0.92-0.05-1.34c-0.05-0.17-0.46-0.3-0.72-0.36
			c-0.95-0.19-1.54-0.66-1.89-1.64c-0.24-0.68-0.3-1.2,0.07-1.81C56.1,39.2,56.23,38.84,56.41,38.45z"/>
		<path class="st1" d="M53.39,33.77c0.42-1.02,0.79-1.97,1.2-2.91c0.13-0.3,0.13-0.48-0.14-0.72c-1.02-0.9-1.21-2.39-0.5-3.53
			c0.71-1.14,2.15-1.61,3.4-1.12s1.96,1.79,1.72,3.14c-0.23,1.29-1.37,2.26-2.72,2.23c-0.47-0.01-0.65,0.14-0.8,0.55
			c-0.34,0.92-0.74,1.82-1.13,2.77C54.06,34.04,53.75,33.92,53.39,33.77z M57.99,28.08c0-0.94-0.74-1.66-1.67-1.66
			c-0.93,0-1.68,0.74-1.68,1.66c-0.01,0.94,0.77,1.71,1.71,1.7C57.26,29.76,57.99,29.01,57.99,28.08z"/>
		<path class="st1" d="M46,33.83c-0.35,0.15-0.64,0.28-1.01,0.44c-0.29-0.69-0.57-1.36-0.85-2.03c-0.04-0.1-0.1-0.19-0.13-0.3
			c-0.19-0.65-0.49-1.02-1.3-1.08c-1.35-0.1-2.28-1.24-2.35-2.59c-0.07-1.31,0.77-2.46,2.04-2.82c1.23-0.35,2.56,0.21,3.18,1.32
			c0.65,1.16,0.41,2.59-0.62,3.47c-0.27,0.23-0.31,0.39-0.17,0.71C45.21,31.89,45.58,32.84,46,33.83z M44.82,28.14
			c0-0.92-0.76-1.68-1.67-1.69c-0.93,0-1.7,0.77-1.69,1.72c0.01,0.93,0.76,1.66,1.7,1.65C44.09,29.81,44.82,29.07,44.82,28.14z"/>
		<path class="st1" d="M39.86,39.48c-0.15,0.36-0.27,0.66-0.41,1.02c-0.98-0.4-1.93-0.78-2.86-1.18c-0.32-0.14-0.52-0.13-0.78,0.15
			c-0.91,0.96-2.4,1.08-3.5,0.35c-1.12-0.74-1.54-2.18-1.01-3.43c0.53-1.24,1.86-1.91,3.19-1.62c1.26,0.28,2.21,1.43,2.14,2.74
			c-0.03,0.55,0.17,0.74,0.63,0.91C38.12,38.73,38.97,39.11,39.86,39.48z M33.83,39.17c0.93,0.01,1.69-0.72,1.71-1.64
			c0.02-0.93-0.72-1.7-1.63-1.72c-0.96-0.02-1.72,0.71-1.73,1.67C32.18,38.42,32.9,39.16,33.83,39.17z"/>
		<path class="st1" d="M39.45,47.75c0.14,0.35,0.27,0.66,0.41,1.02c-0.93,0.39-1.83,0.79-2.74,1.15c-0.32,0.13-0.46,0.25-0.43,0.65
			c0.08,1.33-0.9,2.57-2.17,2.83c-1.36,0.28-2.69-0.41-3.2-1.67c-0.51-1.25-0.06-2.68,1.07-3.4c1.14-0.73,2.62-0.57,3.53,0.45
			c0.26,0.29,0.46,0.28,0.77,0.14C37.59,48.51,38.5,48.14,39.45,47.75z M33.89,52.34c0.94,0,1.67-0.72,1.69-1.66
			c0.01-0.92-0.72-1.69-1.65-1.7c-0.94-0.02-1.73,0.76-1.72,1.69C32.22,51.59,32.97,52.34,33.89,52.34z"/>
		<path class="st1" d="M63.32,38.96c-1.08,0.45-2.15,0.89-3.26,1.35c-0.15-0.35-0.29-0.66-0.44-1.01c0.97-0.41,1.9-0.82,2.85-1.19
			c0.31-0.12,0.43-0.25,0.41-0.62c-0.1-1.3,0.83-2.52,2.1-2.84c1.3-0.32,2.68,0.34,3.23,1.55c0.55,1.22,0.15,2.7-0.94,3.45
			c-1.11,0.76-2.62,0.63-3.56-0.3C63.58,39.24,63.46,39.11,63.32,38.96z M65.65,35.7c-0.93,0-1.67,0.74-1.67,1.68
			c0.01,0.93,0.74,1.67,1.67,1.68c0.92,0.01,1.69-0.74,1.7-1.66C67.36,36.45,66.61,35.7,65.65,35.7z"/>
		<path class="st1" d="M59.68,48.79c0.15-0.36,0.28-0.67,0.43-1.02c0.56,0.23,1.09,0.44,1.61,0.66c0.51,0.21,1.03,0.42,1.57,0.64
			c0.65-0.88,1.49-1.38,2.62-1.31c1.46,0.09,2.64,1.37,2.59,2.85c-0.05,1.5-1.23,2.67-2.73,2.71c-1.49,0.04-2.81-1.11-2.83-2.58
			c-0.01-0.55-0.22-0.73-0.67-0.9C61.43,49.54,60.59,49.17,59.68,48.79z M65.73,52.23c0.93-0.01,1.67-0.75,1.66-1.68
			c-0.01-0.94-0.74-1.67-1.66-1.68c-0.94,0-1.71,0.77-1.7,1.71C64.04,51.5,64.8,52.23,65.73,52.23z"/>
		<path class="st1" d="M53.43,54.45c0.37-0.15,0.66-0.27,1.02-0.42c0.37,0.89,0.75,1.75,1.1,2.63c0.14,0.36,0.27,0.52,0.72,0.46
			c1.27-0.15,2.53,0.79,2.86,2.06c0.35,1.31-0.31,2.7-1.55,3.27C56.37,63,54.9,62.6,54.14,61.5c-0.76-1.09-0.66-2.61,0.28-3.51
			c0.29-0.28,0.31-0.48,0.15-0.82C54.18,56.29,53.82,55.39,53.43,54.45z M58.1,59.89c0-0.94-0.73-1.66-1.67-1.67
			c-0.93-0.01-1.67,0.73-1.68,1.66c-0.01,0.94,0.78,1.72,1.71,1.7C57.39,61.57,58.11,60.82,58.1,59.89z"/>
		<path class="st1" d="M45.09,54.02c0.34,0.14,0.65,0.26,1.02,0.41c-0.37,0.91-0.72,1.81-1.1,2.69c-0.15,0.33-0.16,0.54,0.16,0.81
			c1,0.88,1.16,2.4,0.43,3.53c-0.7,1.1-2.14,1.56-3.36,1.08c-1.27-0.5-1.98-1.81-1.72-3.18c0.24-1.25,1.39-2.22,2.7-2.19
			c0.45,0.01,0.66-0.12,0.81-0.53C44.34,55.77,44.72,54.92,45.09,54.02z M43.25,61.62c0.94,0,1.67-0.72,1.68-1.66
			c0.01-0.93-0.73-1.69-1.65-1.7c-0.95-0.01-1.72,0.75-1.71,1.7C41.58,60.89,42.31,61.62,43.25,61.62z"/>
		<path class="st0" d="M54.34,44.11c0.01,2.52-2.01,4.55-4.54,4.55c-2.49,0-4.52-2.02-4.54-4.51c-0.02-2.52,2.01-4.56,4.53-4.57
			C52.32,39.57,54.33,41.57,54.34,44.11z M49.79,47.27c1.75,0.01,3.17-1.38,3.18-3.12c0.02-1.76-1.41-3.19-3.18-3.19
			c-1.74,0-3.14,1.4-3.15,3.15C46.64,45.86,48.04,47.26,49.79,47.27z"/>
	</g>
	<g>
		<g>
			<path class="st0" d="M21.25,68.05v6.53h-1.07v-4.66l-1.99,3.28h-0.13l-1.99-3.29v4.66H15v-6.53h1.16l1.97,3.26l1.98-3.26h1.14
				V68.05z"/>
			<path class="st0" d="M22.55,68.05h1.07v6.53h-1.07V68.05z"/>
			<path class="st0" d="M25.58,73.73c-0.64-0.65-0.97-1.45-0.97-2.42c0-0.96,0.33-1.76,0.97-2.41s1.46-0.98,2.44-0.98
				c1.18,0,2.25,0.6,2.81,1.56l-0.93,0.54c-0.35-0.64-1.05-1.05-1.87-1.05c-0.7,0-1.26,0.22-1.7,0.66c-0.43,0.44-0.64,1-0.64,1.68
				s0.21,1.24,0.64,1.68c0.44,0.44,1,0.66,1.7,0.66c0.82,0,1.54-0.41,1.87-1.05l0.93,0.53c-0.27,0.48-0.66,0.86-1.17,1.15
				c-0.49,0.28-1.04,0.42-1.64,0.42C27.04,74.7,26.22,74.38,25.58,73.73z"/>
			<path class="st0" d="M35.43,74.58l-1.38-2.38h-1.27v2.38h-1.07v-6.53h2.61c0.59,0,1.08,0.21,1.48,0.61
				c0.41,0.4,0.62,0.9,0.62,1.48c0,0.83-0.52,1.59-1.3,1.89l1.48,2.54L35.43,74.58L35.43,74.58z M32.79,69.06v2.18h1.54
				c0.57,0,1.03-0.49,1.03-1.09c0-0.61-0.46-1.09-1.03-1.09C34.33,69.06,32.79,69.06,32.79,69.06z"/>
			<path class="st0" d="M40.44,74.7c-0.94,0-1.74-0.33-2.41-0.98c-0.65-0.66-0.98-1.46-0.98-2.41c0-0.94,0.33-1.74,0.98-2.4
				c0.66-0.66,1.46-0.99,2.41-0.99c0.94,0,1.74,0.33,2.4,0.99c0.66,0.65,0.99,1.46,0.99,2.4s-0.33,1.74-0.99,2.41
				C42.19,74.38,41.39,74.7,40.44,74.7z M40.44,73.66c0.65,0,1.2-0.22,1.64-0.66c0.45-0.45,0.67-1.01,0.67-1.68
				s-0.22-1.23-0.67-1.67c-0.44-0.45-0.99-0.67-1.64-0.67c-0.65,0-1.2,0.22-1.65,0.67c-0.44,0.44-0.66,1-0.66,1.67
				s0.22,1.23,0.66,1.68C39.24,73.43,39.79,73.66,40.44,73.66z"/>
			<path class="st0" d="M44.22,73.1l0.92-0.54c0.26,0.74,0.8,1.1,1.62,1.1c0.81,0,1.21-0.35,1.21-0.86c0-0.27-0.11-0.47-0.33-0.61
				c-0.21-0.14-0.61-0.3-1.16-0.47c-0.62-0.19-0.93-0.31-1.37-0.6c-0.42-0.3-0.63-0.73-0.63-1.32c0-0.58,0.21-1.04,0.62-1.37
				c0.41-0.35,0.9-0.51,1.48-0.51c1.04,0,1.86,0.54,2.28,1.44l-0.9,0.52c-0.27-0.61-0.73-0.91-1.37-0.91
				c-0.62,0-1.03,0.32-1.03,0.81c0,0.48,0.32,0.71,1.31,1.02c0.25,0.08,0.43,0.14,0.54,0.19c0.12,0.04,0.28,0.1,0.48,0.19
				c0.21,0.08,0.37,0.18,0.48,0.26c0.35,0.27,0.72,0.72,0.67,1.34c0,0.59-0.21,1.06-0.64,1.41c-0.42,0.35-0.98,0.51-1.67,0.51
				C45.48,74.7,44.56,74.1,44.22,73.1z"/>
			<path class="st0" d="M51,73.55h2.89v1.03h-3.96v-6.53h3.92v1.03H51v1.7h2.61v1.02H51V73.55z"/>
			<path class="st0" d="M58.59,74.58l-1.38-2.38h-1.27v2.38h-1.07v-6.53h2.61c0.59,0,1.08,0.21,1.48,0.61
				c0.41,0.4,0.62,0.9,0.62,1.48c0,0.83-0.52,1.59-1.3,1.89l1.48,2.54L58.59,74.58L58.59,74.58z M55.94,69.06v2.18h1.54
				c0.57,0,1.03-0.49,1.03-1.09c0-0.61-0.46-1.09-1.03-1.09C57.48,69.06,55.94,69.06,55.94,69.06z"/>
			<path class="st0" d="M62.16,74.58l-2.27-6.53h1.18l1.74,5.23l1.74-5.23h1.17l-2.27,6.53H62.16z"/>
			<path class="st0" d="M66.41,68.05h1.07v6.53h-1.07V68.05z"/>
			<path class="st0" d="M69.43,73.73c-0.64-0.65-0.97-1.45-0.97-2.42c0-0.96,0.33-1.76,0.97-2.41s1.46-0.98,2.44-0.98
				c1.18,0,2.25,0.6,2.81,1.56l-0.93,0.54c-0.35-0.64-1.05-1.05-1.88-1.05c-0.7,0-1.26,0.22-1.7,0.66c-0.43,0.44-0.64,1-0.64,1.68
				s0.21,1.24,0.64,1.68c0.44,0.44,1,0.66,1.7,0.66c0.82,0,1.54-0.41,1.88-1.05l0.93,0.53c-0.27,0.48-0.66,0.86-1.17,1.15
				c-0.49,0.28-1.04,0.42-1.64,0.42C70.89,74.7,70.07,74.38,69.43,73.73z"/>
			<path class="st0" d="M76.64,73.55h2.89v1.03h-3.96v-6.53h3.92v1.03h-2.85v1.7h2.61v1.02h-2.61V73.55z"/>
			<path class="st0" d="M80.16,73.1l0.92-0.54c0.26,0.74,0.8,1.1,1.62,1.1c0.81,0,1.21-0.35,1.21-0.86c0-0.27-0.11-0.47-0.33-0.61
				c-0.21-0.14-0.61-0.3-1.16-0.47c-0.63-0.19-0.93-0.31-1.37-0.6c-0.42-0.3-0.63-0.73-0.63-1.32c0-0.58,0.21-1.04,0.62-1.37
				c0.41-0.35,0.9-0.51,1.48-0.51c1.04,0,1.86,0.54,2.28,1.44l-0.91,0.52c-0.27-0.61-0.73-0.91-1.37-0.91
				c-0.63,0-1.03,0.32-1.03,0.81c0,0.48,0.32,0.71,1.31,1.02c0.25,0.08,0.43,0.14,0.54,0.19c0.12,0.04,0.28,0.1,0.48,0.19
				c0.21,0.08,0.37,0.18,0.48,0.26c0.35,0.27,0.72,0.72,0.67,1.34c0,0.59-0.22,1.06-0.64,1.41c-0.42,0.35-0.98,0.51-1.67,0.51
				C81.42,74.7,80.51,74.1,80.16,73.1z"/>
		</g>
	</g>
</g>
</svg>
