<?xml version="1.0" encoding="utf-8"?>
<!-- Generator: Adobe Illustrator 24.2.0, SVG Export Plug-In . SVG Version: 6.00 Build 0)  -->
<svg version="1.1" id="Layer_1" xmlns="http://www.w3.org/2000/svg" xmlns:xlink="http://www.w3.org/1999/xlink" x="0px" y="0px"
	 viewBox="0 0 100 100" style="enable-background:new 0 0 100 100;" xml:space="preserve">
<style type="text/css">
	.st0{fill:#EC681C;}
</style>
<path class="st0" d="M76.84,44.05c1.66,0,3.02,1.35,3.02,3.01v31.5c0,1.66-1.34,3.01-3.01,3.01h-53.7c-1.66,0-3.01-1.35-3.01-3.01
	l0,0V21.44c0-1.66,1.34-3.01,3.01-3.01h6.53c1.66,0,3.01,1.34,3.01,3.01v19.78c0.09,1.45,1.2,2.64,2.64,2.83h4.88
	c1.48-0.14,2.71-1.34,2.79-2.83V21.43c0-1.66,1.34-3.01,3.01-3.01h6.53c1.66,0,3.01,1.34,3.01,3.01v19.58
	c0,1.55,1.14,2.86,2.63,3.04L76.84,44.05L76.84,44.05z M68.24,65.66V59.5c0-1.66-1.34-3.01-3.01-3.01H58.7
	c-1.66,0-3.01,1.34-3.01,3.01v6.16c0,1.66,1.34,3.01,3.01,3.01h6.53C66.89,68.66,68.24,67.32,68.24,65.66L68.24,65.66z"/>
</svg>
