<?xml version="1.0" encoding="utf-8"?>
<!-- Generator: Adobe Illustrator 24.2.0, SVG Export Plug-In . SVG Version: 6.00 Build 0)  -->
<svg version="1.1" id="Layer_1" xmlns="http://www.w3.org/2000/svg" xmlns:xlink="http://www.w3.org/1999/xlink" x="0px" y="0px"
	 viewBox="0 0 100 100" style="enable-background:new 0 0 100 100;" xml:space="preserve">
<style type="text/css">
	.st0{fill:#A52116;}
	.st1{fill:#D92D21;}
	.st2{fill:#FFFFFF;}
	.st3{fill:#79170E;}
	.st4{fill:#AD2317;}
</style>
<g transform="translate(-166.32586,-222.11295)">
	<path class="st0" d="M248.58,288.38c-3.74,1.95-23.09,9.9-27.21,12.05c-4.12,2.15-6.41,2.13-9.66,0.57s-23.85-9.87-27.56-11.65
		c-1.85-0.89-2.83-1.63-2.83-2.34v-7.08c0,0,26.81-5.84,31.14-7.39c4.33-1.55,5.83-1.61,9.51-0.26c3.68,1.35,25.71,5.32,29.35,6.66
		c0,0,0,6.32,0,6.98C251.32,286.62,250.48,287.39,248.58,288.38L248.58,288.38z"/>
	<path class="st1" d="M248.58,281.3c-3.74,1.95-23.09,9.9-27.21,12.05c-4.12,2.15-6.41,2.13-9.66,0.57
		c-3.25-1.55-23.85-9.87-27.56-11.65c-3.71-1.77-3.79-2.99-0.14-4.42c3.64-1.43,24.12-9.46,28.45-11.02
		c4.33-1.55,5.83-1.61,9.51-0.26c3.68,1.35,22.92,9.01,26.56,10.34C252.18,278.25,252.32,279.35,248.58,281.3L248.58,281.3z"/>
	<path class="st0" d="M248.58,276.84c-3.74,1.95-23.09,9.9-27.21,12.05c-4.12,2.15-6.41,2.13-9.66,0.57
		c-3.25-1.55-23.85-9.87-27.56-11.65c-1.85-0.89-2.83-1.63-2.83-2.34v-7.08c0,0,26.81-5.84,31.14-7.39
		c4.33-1.55,5.83-1.61,9.51-0.26c3.68,1.35,25.71,5.32,29.35,6.66c0,0,0,6.32,0,6.98C251.32,275.08,250.48,275.85,248.58,276.84z"/>
	<path class="st1" d="M248.58,269.76c-3.74,1.95-23.09,9.9-27.21,12.05c-4.12,2.15-6.41,2.13-9.66,0.57
		c-3.25-1.55-23.85-9.87-27.56-11.65c-3.71-1.77-3.79-2.99-0.14-4.42c3.64-1.43,24.12-9.46,28.45-11.01s5.83-1.61,9.51-0.26
		s22.92,9.01,26.56,10.34C252.18,266.72,252.32,267.81,248.58,269.76L248.58,269.76z"/>
	<path class="st0" d="M248.58,264.87c-3.74,1.95-23.09,9.9-27.21,12.05c-4.12,2.15-6.41,2.13-9.66,0.57
		c-3.25-1.55-23.85-9.87-27.56-11.65c-1.85-0.89-2.83-1.63-2.83-2.34v-7.08c0,0,26.81-5.84,31.14-7.39s5.83-1.61,9.51-0.26
		s25.71,5.32,29.35,6.66c0,0,0,6.32,0,6.98C251.32,263.11,250.48,263.88,248.58,264.87L248.58,264.87z"/>
	<path class="st1" d="M248.58,257.8c-3.74,1.95-23.09,9.9-27.21,12.05c-4.12,2.15-6.41,2.13-9.66,0.57s-23.85-9.87-27.56-11.65
		c-3.71-1.77-3.79-2.99-0.14-4.42c3.64-1.43,24.12-9.46,28.45-11.01c4.33-1.55,5.83-1.61,9.51-0.26s22.92,9.01,26.56,10.34
		C252.18,254.75,252.32,255.85,248.58,257.8L248.58,257.8z"/>
	<polygon class="st2" points="225.5,250.98 219.43,251.61 218.07,254.88 215.88,251.23 208.88,250.6 214.1,248.72 212.54,245.83 
		217.43,247.74 222.04,246.23 220.79,249.22 	"/>
	<polygon class="st2" points="217.71,266.83 206.39,262.14 222.61,259.65 	"/>
	<ellipse class="st2" cx="202.02" cy="256.16" rx="8.67" ry="3.36"/>
	<polygon class="st3" points="232.67,251.87 242.27,255.67 232.67,259.46 	"/>
	<polygon class="st4" points="222.05,256.08 232.67,251.87 232.67,259.46 231.63,259.87 	"/>
</g>
</svg>
