<?xml version="1.0" encoding="utf-8"?>
<!-- Generator: Adobe Illustrator 24.2.0, SVG Export Plug-In . SVG Version: 6.00 Build 0)  -->
<svg version="1.1" id="Layer_1" xmlns="http://www.w3.org/2000/svg" xmlns:xlink="http://www.w3.org/1999/xlink" x="0px" y="0px"
	 viewBox="0 0 100 100" style="enable-background:new 0 0 100 100;" xml:space="preserve">
<style type="text/css">
	.st0{fill:#59B4D9;}
</style>
<path class="st0" d="M43.65,65.65l3.87-9.4h8.46c3.1,0,5.84-2.21,6.3-5.28c0.52-3.41-1.83-6.6-5.24-7.11
	c-0.3-0.05-0.61-0.07-0.92-0.07H28.07l15.58-15.58v6.1h12.42c7.42,0,14.56,5.97,15.63,13.31c1.31,8.5-4.52,16.45-13.03,17.76
	c-0.58,0.09-1.16,0.15-1.75,0.17L69.67,78.3C85.3,67.43,89.16,45.96,78.3,30.33S45.96,10.84,30.33,21.7S10.84,54.04,21.7,69.67
	c6.45,9.27,17.03,14.8,28.32,14.79c3.66,0.01,7.3-0.6,10.76-1.78L43.65,65.65z"/>
</svg>
